<svg xmlns="http://www.w3.org/2000/svg" xml:space="preserve" width="794.42" height="597.67" class="icon" viewBox="0 0 1016.9 765.01">
  <path fill="#5e81ac" d="M38.25 15.938h940.33c12.75 0 22.313 10.36 22.313 22.313v687.71c0 12.75-10.36 22.313-22.313 22.313H38.25c-11.953.797-22.313-9.563-22.313-21.516V38.248c0-11.953 10.36-22.313 22.313-22.313z"/>
  <path fill="#131313" d="M978.573 765.01H38.242c-20.72 0-38.252-17.532-38.252-38.251V38.249C-.009 17.53 17.523-.002 38.242-.002h940.33c21.516 0 38.251 17.532 38.251 38.251v687.71c.797 21.516-16.735 39.047-38.25 39.047zM38.242 31.87c-3.188 0-6.376 3.188-6.376 6.375v687.71c0 3.984 3.188 7.172 6.375 7.172h940.33c3.985 0 6.376-3.187 6.376-6.375V38.242c0-3.984-3.188-6.375-6.376-6.375H38.242z"/>
  <path fill="#d8dee9" d="M74.11 77.298h866.22v611.21H74.11z"/>
  <path fill="#131313" d="M940.323 703.65H74.102c-8.766 0-15.939-7.172-15.939-15.938V77.292c0-8.766 7.172-15.938 15.938-15.938h866.22c8.766 0 15.938 7.172 15.938 15.938v611.21c0 7.969-7.172 15.141-15.938 15.141zm-850.28-31.875h834.34V93.235H90.043z"/>
  <path fill="#81a1c1" stroke="#000" stroke-width="12.8" d="M876.58 575.35H715.61c-8.766 0-15.938-7.172-15.938-15.938s7.172-15.938 15.938-15.938h160.97c8.766 0 15.938 7.172 15.938 15.938s-7.172 15.938-15.938 15.938zm-101.2 68.532h-59.767c-8.766 0-15.938-7.172-15.938-15.938s7.172-15.938 15.938-15.938h59.767c8.766 0 15.938 7.172 15.938 15.938s-7.172 15.938-15.938 15.938z"/>
  <g stroke="#000" stroke-width="12.8">
    <g fill="#a3be8c">
      <path d="M471.753 540.29c-3.985 0-7.97-1.594-11.156-4.781l-214.36-213.57c-6.376-6.375-6.376-15.938 0-22.313 6.375-6.375 15.937-6.375 22.312 0l213.57 213.57c6.376 6.375 6.376 15.938 0 22.313-2.39 3.984-6.375 4.781-10.36 4.781zm35.063-2.39c-2.391 0-5.579-.798-7.97-2.391-7.968-3.985-10.36-14.344-6.375-21.516l160.97-285.29c3.985-7.97 14.344-10.36 21.516-6.376 7.97 3.985 10.36 14.344 6.376 21.516l-160.17 286.08c-3.188 4.782-8.766 7.97-14.344 7.97z"/>
      <path d="M679.743 252.61c-24.705 0-45.424-19.922-45.424-45.423s19.922-45.423 45.423-45.423c25.5 0 45.423 20.719 45.423 45.423s-19.922 45.423-45.423 45.423zm0-58.173c-7.173 0-13.548 5.578-13.548 13.547s5.579 13.547 13.547 13.547c7.97 0 13.547-6.375 13.547-14.344s-5.578-12.75-13.547-12.75zM490.883 591.29c-24.704 0-45.423-19.922-45.423-45.423 0-25.5 19.922-45.423 45.423-45.423 24.704 0 45.423 19.922 45.423 45.423s-19.923 45.423-45.424 45.423zm0-58.173c-7.172 0-13.547 5.578-13.547 13.547s5.578 13.547 13.546 13.547c7.172 0 13.547-5.578 13.547-13.547s-5.578-13.547-13.546-13.547zM235.883 336.29c-24.705 0-45.424-19.922-45.424-45.423 0-24.704 19.922-45.423 45.423-45.423 24.704 0 45.423 19.922 45.423 45.423s-19.922 45.423-45.423 45.423zm0-58.173c-7.173 0-13.548 5.578-13.548 13.547 0 7.172 5.579 13.547 13.547 13.547 7.172 0 13.547-5.578 13.547-13.547s-5.578-13.547-13.547-13.547z"/>
    </g>
    <g fill="#ebcb8b">
      <path d="M283.693 568.98c-3.985 0-7.97-1.594-11.156-4.781-6.376-6.375-6.376-16.735 0-22.313l202.41-197.63c6.375-6.375 16.735-6.375 22.313 0 6.375 6.375 6.375 16.735 0 22.313l-202.41 197.63c-3.188 3.187-7.172 4.781-11.156 4.781zm463.79-217.55h-211.18c-8.766 0-15.938-7.172-15.938-15.938s7.172-15.938 15.938-15.938h210.38c8.765 0 15.938 7.172 15.938 15.938s-6.376 15.938-15.141 15.938z"/>
      <path d="M775.373 380.12c-24.705 0-45.424-19.922-45.424-45.423 0-24.704 19.922-45.423 45.423-45.423 25.5 0 45.423 19.922 45.423 45.423s-19.922 45.423-45.423 45.423zm0-58.173c-7.173 0-13.548 5.578-13.548 13.547 0 7.172 5.579 13.547 13.547 13.547 7.97 0 13.547-6.375 13.547-13.547 0-7.969-6.375-13.547-13.547-13.547zM507.613 380.12c-24.704 0-45.423-19.922-45.423-45.423 0-24.704 19.922-45.423 45.423-45.423s45.423 19.922 45.423 45.423c-.797 25.5-20.72 45.423-45.423 45.423zm0-58.173c-7.172 0-13.547 5.578-13.547 13.547 0 7.172 5.578 13.547 13.547 13.547s13.547-5.578 13.547-13.547c-.797-7.969-6.376-13.547-13.547-13.547zM265.363 620.78c-24.704 0-45.423-19.922-45.423-45.423 0-24.704 19.922-45.423 45.423-45.423s45.423 19.922 45.423 45.423c0 24.704-20.72 45.423-45.423 45.423zm0-58.173c-7.172 0-13.547 5.578-13.547 13.547s5.578 13.547 13.547 13.547 13.547-5.578 13.547-13.547-6.376-13.547-13.547-13.547z"/>
    </g>
  </g>
</svg>
